<?xml version="1.0" encoding="UTF-8" standalone="no"?>
<!-- Created with Inkscape (http://www.inkscape.org/) -->

<svg
   width="10.583328mm"
   height="10.583336mm"
   viewBox="0 0 10.583328 10.583336"
   version="1.1"
   id="svg5"
   xmlns="http://www.w3.org/2000/svg"
   xmlns:svg="http://www.w3.org/2000/svg">
  <defs
     id="defs2" />
  <g
     id="layer1"
     transform="translate(-171.97916,-91.281247)">
    <path
       id="rect6048"
       style="fill:#f5f5f4;fill-opacity:1;stroke-width:0.723002"
       d="m 177.27083,91.28125 c -2.93157,0 -5.29166,2.360089 -5.29166,5.291667 0,2.931577 2.36009,5.291663 5.29166,5.291663 2.93158,0 5.29167,-2.360086 5.29167,-5.291663 0,-2.931578 -2.36009,-5.291667 -5.29167,-5.291667 z m 0,0.79375 c 2.49184,0 4.49792,2.006078 4.49792,4.497917 0,2.491839 -2.00608,4.497913 -4.49792,4.497913 -2.49183,0 -4.49791,-2.006074 -4.49791,-4.497913 0,-2.491839 2.00608,-4.497917 4.49791,-4.497917 z" />
    <rect
       style="fill:#f5f5f4;fill-opacity:1;stroke-width:0.352777"
       id="rect6110"
       width="4.2333217"
       height="1.0583323"
       x="83.34407"
       y="183.09152"
       ry="0.52916616"
       transform="rotate(-36.869799)" />
    <rect
       style="fill:#f5f5f4;fill-opacity:1;stroke-width:0.292508"
       id="rect6112"
       width="2.9104147"
       height="1.0583323"
       x="55.288998"
       y="-194.52815"
       ry="0.52916616"
       transform="rotate(102.5287)" />
  </g>
</svg>
